<?xml version="1.0" encoding="UTF-8"?>
<svg width="100px" height="100px" viewBox="0 0 100 100" version="1.1" xmlns="http://www.w3.org/2000/svg" xmlns:xlink="http://www.w3.org/1999/xlink">
    <!-- Generator: Sketch 55.2 (78181) - https://sketchapp.com -->
    <title>App Icon</title>
    <desc>Created with Sketch.</desc>
    <g id="Page-1" stroke="none" stroke-width="1" fill="none" fill-rule="evenodd">
        <g id="Artboard" transform="translate(-895.000000, -203.000000)">
            <g id="App-Icon" transform="translate(895.000000, 203.000000)">
                <rect id="Rectangle" fill="#333E5D" x="0" y="0" width="100" height="100" rx="4"></rect>
                <g id="plus" transform="translate(68.000000, 68.000000)" fill="#FFFFFF" fill-rule="nonzero">
                    <path d="M13,5.5 L8.5,5.5 L8.5,1 C8.5,0.4478125 8.0521875,0 7.5,0 L6.5,0 C5.9478125,0 5.5,0.4478125 5.5,1 L5.5,5.5 L1,5.5 C0.4478125,5.5 0,5.9478125 0,6.5 L0,7.5 C0,8.0521875 0.4478125,8.5 1,8.5 L5.5,8.5 L5.5,13 C5.5,13.5521875 5.9478125,14 6.5,14 L7.5,14 C8.0521875,14 8.5,13.5521875 8.5,13 L8.5,8.5 L13,8.5 C13.5521875,8.5 14,8.0521875 14,7.5 L14,6.5 C14,5.9478125 13.5521875,5.5 13,5.5 Z" id="Path"></path>
                </g>
                <path d="M4,0 L50,0 L50,50 L0,50 L0,4 C-2.705415e-16,1.790861 1.790861,4.05812251e-16 4,0 Z" id="Rectangle" fill="#0D183A"></path>
                <g id="divide" transform="translate(18.000000, 18.000000)" fill="#FFFFFF" fill-rule="nonzero">
                    <path d="M7,10 C5.8953125,10 5,10.8953125 5,12 C5,13.1046875 5.8953125,14 7,14 C8.1046875,14 9,13.1046875 9,12 C9,10.8953125 8.1046875,10 7,10 Z M7,4 C8.1046875,4 9,3.1046875 9,2 C9,0.8953125 8.1046875,0 7,0 C5.8953125,0 5,0.8953125 5,2 C5,3.1046875 5.8953125,4 7,4 Z M13,5.5 L1,5.5 C0.4478125,5.5 0,5.9478125 0,6.5 L0,7.5 C0,8.0521875 0.4478125,8.5 1,8.5 L13,8.5 C13.5521875,8.5 14,8.0521875 14,7.5 L14,6.5 C14,5.9478125 13.5521875,5.5 13,5.5 Z" id="Shape"></path>
                </g>
                <path d="M54,0 L100,0 L100,50 L50,50 L50,4 C50,1.790861 51.790861,4.05812251e-16 54,0 Z" id="Rectangle" fill="#172346" transform="translate(75.000000, 25.000000) rotate(90.000000) translate(-75.000000, -25.000000) "></path>
                <g id="times" transform="translate(68.000000, 18.000000)" fill="#FFFFFF" fill-rule="nonzero">
                    <path d="M9.65363636,7 L13.6336932,3.01994318 C14.1221023,2.53153409 14.1221023,1.73965909 13.6336932,1.25085227 L12.7491477,0.366306818 C12.2607386,-0.122102273 11.4688636,-0.122102273 10.9800568,0.366306818 L7,4.34636364 L3.01994318,0.366306818 C2.53153409,-0.122102273 1.73965909,-0.122102273 1.25085227,0.366306818 L0.366306818,1.25085227 C-0.122102273,1.73926136 -0.122102273,2.53113636 0.366306818,3.01994318 L4.34636364,7 L0.366306818,10.9800568 C-0.122102273,11.4684659 -0.122102273,12.2603409 0.366306818,12.7491477 L1.25085227,13.6336932 C1.73926136,14.1221023 2.53153409,14.1221023 3.01994318,13.6336932 L7,9.65363636 L10.9800568,13.6336932 C11.4684659,14.1221023 12.2607386,14.1221023 12.7491477,13.6336932 L13.6336932,12.7491477 C14.1221023,12.2607386 14.1221023,11.4688636 13.6336932,10.9800568 L9.65363636,7 Z" id="Path"></path>
                </g>
                <path d="M0,50 L50,50 L50,100 L4,100 C1.790861,100 2.705415e-16,98.209139 0,96 L0,50 Z" id="Rectangle" fill="#111D41"></path>
                <g id="minus" transform="translate(18.000000, 73.000000)" fill="#FFFFFF" fill-rule="nonzero">
                    <path d="M13,0 L1,0 C0.4478125,0 0,0.597083333 0,1.33333333 L0,2.66666667 C0,3.40291667 0.4478125,4 1,4 L13,4 C13.5521875,4 14,3.40291667 14,2.66666667 L14,1.33333333 C14,0.597083333 13.5521875,0 13,0 Z" id="Path"></path>
                </g>
            </g>
        </g>
    </g>
</svg>